<?xml version="1.0" encoding="utf-8"?>
<!-- Generator: Adobe Illustrator 20.1.0, SVG Export Plug-In . SVG Version: 6.00 Build 0)  -->
<svg version="1.1" fill="#6e7b83" id="Layer_2" xmlns="http://www.w3.org/2000/svg" xmlns:xlink="http://www.w3.org/1999/xlink" x="0px" y="0px"
	 viewBox="0 0 20 20" style="enable-background:new 0 0 20 20;" xml:space="preserve">
<style type="text/css">
	.st0{fill:none;}
</style>
<path d="M10.6,9.9L14.5,6c0.2-0.2,0.2-0.5,0-0.7S14,5,13.8,5.2l-3.9,4L6,5.2C5.8,5,5.4,5,5.2,5.2S5,5.7,5.2,5.9l3.9,3.9l-3.9,3.9
	c-0.2,0.2-0.2,0.5,0,0.7c0.1,0.1,0.2,0.1,0.4,0.1s0.3,0,0.4-0.1l3.9-3.9l3.9,3.9c0.1,0.1,0.2,0.1,0.4,0.1s0.3,0,0.4-0.1
	c0.2-0.2,0.2-0.5,0-0.7L10.6,9.9z"/>
<path class="st0" d="M0,0h20v20H0V0z"/>
</svg>
