<?xml version="1.0" encoding="UTF-8" standalone="no"?>
<svg width="9px" height="12px" viewBox="0 0 9 12" version="1.1" xmlns="http://www.w3.org/2000/svg" xmlns:xlink="http://www.w3.org/1999/xlink">
    <!-- Generator: Sketch 44.1 (41455) - http://www.bohemiancoding.com/sketch -->
    <title>Apple Watch 42mm</title>
    <desc>Created with Sketch.</desc>
    <defs></defs>
    <g id="Welcome" stroke="none" stroke-width="1" fill="none" fill-rule="evenodd">
        <g id="Apple-Watch-42mm" fill="#5B5B58">
            <g id="Group-2">
                <path d="M5.03244643,7.72666667 L5.03244643,0.666666667 C5.03244643,0.298 4.74508929,0 4.38958929,0 C4.03473214,0 3.74673214,0.298 3.74673214,0.666666667 L3.74673214,7.72666667 L1.09751786,4.97666667 C0.846160714,4.716 0.439232143,4.716 0.188517857,4.97666667 C-0.0628392857,5.23666667 -0.0628392857,5.66 0.188517857,5.92 L3.82451786,9.69333333 C3.97880357,9.85333333 4.18966071,9.9 4.38958929,9.86 C4.58951786,9.9 4.800375,9.85333333 4.95466071,9.69333333 L8.59066071,5.92 C8.84201786,5.66 8.84201786,5.23666667 8.59066071,4.97666667 C8.34058929,4.716 7.93301786,4.716 7.68166071,4.97666667 L5.03244643,7.72666667 Z" id="Path"></path>
                <rect id="Rectangle-5" x="0" y="10.6666667" width="8.77917857" height="1.33333333" rx="0.666666667"></rect>
            </g>
        </g>
    </g>
</svg>