<?xml version="1.0" encoding="utf-8"?>
<!-- Generator: Adobe Illustrator 16.0.4, SVG Export Plug-In . SVG Version: 6.00 Build 0)  -->
<!DOCTYPE svg PUBLIC "-//W3C//DTD SVG 1.1//EN" "http://www.w3.org/Graphics/SVG/1.1/DTD/svg11.dtd">
<svg version="1.1" id="Layer_1" xmlns="http://www.w3.org/2000/svg" xmlns:xlink="http://www.w3.org/1999/xlink" x="0px" y="0px"
	 width="150px" height="120px" viewBox="0 0 150 120" enable-background="new 0 0 150 120" xml:space="preserve">
<title>Apple Watch 42mm</title>
<desc>Created with Sketch.</desc>
<g id="Welcome">
	<g id="Apple-Watch-42mm">
		<g id="my-computer" transform="translate(43.000000, 41.000000)">
			<path id="Combined-Shape" fill="#12B5EE" d="M2,30V2h41v28H2z M27,32h18V0H0v32h18v3.086C12.174,35.291,8,35.847,8,36.5
				c0,0.828,6.716,1.5,15,1.5s15-0.672,15-1.5c0-0.689-4.658-1.271-11-1.446V32z"/>
			<path id="Combined-Shape_1_" fill="#12B5EE" d="M48,0h16v38H48V0z M56.5,27c0.828,0,1.5-0.672,1.5-1.5S57.328,24,56.5,24
				S55,24.672,55,25.5S55.672,27,56.5,27z M56.5,29c0.276,0,0.5-0.224,0.5-0.5S56.776,28,56.5,28S56,28.224,56,28.5
				S56.224,29,56.5,29z M50,4v2h12V4H50z M50,7v2h12V7H50z M50,10v2h12v-2H50z"/>
		</g>
	</g>
</g>
</svg>
