<?xml version="1.0" encoding="UTF-8" standalone="no"?>
<svg width="150px" height="120px" viewBox="0 0 150 120" version="1.1" xmlns="http://www.w3.org/2000/svg" xmlns:xlink="http://www.w3.org/1999/xlink">
    <!-- Generator: Sketch 44.1 (41455) - http://www.bohemiancoding.com/sketch -->
    <title>Apple Watch 42mm</title>
    <desc>Created with Sketch.</desc>
    <defs></defs>
    <g id="Welcome" stroke="none" stroke-width="1" fill="none" fill-rule="evenodd">
        <g id="Apple-Watch-42mm" fill="#757575">
            <g id="my-computer" transform="translate(43.000000, 41.000000)">
                <path d="M2,30 L2,2 L43,2 L43,30 L2,30 Z M27,32 L45,32 L45,0 L0,0 L0,32 L18,32 L18,35.0853529 C12.1740381,35.2912711 8,35.8468906 8,36.5 C8,37.3284271 14.7157288,38 23,38 C31.2842712,38 38,37.3284271 38,36.5 C38,35.8100938 33.342374,35.2289723 27,35.0539233 L27,32 Z" id="Combined-Shape" fill-rule="nonzero"></path>
                <path d="M48,0 L64,0 L64,38 L48,38 L48,0 Z M56.5,27 C57.3284271,27 58,26.3284271 58,25.5 C58,24.6715729 57.3284271,24 56.5,24 C55.6715729,24 55,24.6715729 55,25.5 C55,26.3284271 55.6715729,27 56.5,27 Z M56.5,29 C56.7761424,29 57,28.7761424 57,28.5 C57,28.2238576 56.7761424,28 56.5,28 C56.2238576,28 56,28.2238576 56,28.5 C56,28.7761424 56.2238576,29 56.5,29 Z M50,4 L50,6 L62,6 L62,4 L50,4 Z M50,7 L50,9 L62,9 L62,7 L50,7 Z M50,10 L50,12 L62,12 L62,10 L50,10 Z" id="Combined-Shape"></path>
            </g>
        </g>
    </g>
</svg>