<?xml version="1.0" encoding="utf-8"?>
<!-- Generator: Adobe Illustrator 16.0.4, SVG Export Plug-In . SVG Version: 6.00 Build 0)  -->
<!DOCTYPE svg PUBLIC "-//W3C//DTD SVG 1.1//EN" "http://www.w3.org/Graphics/SVG/1.1/DTD/svg11.dtd">
<svg version="1.1" id="Layer_1" xmlns="http://www.w3.org/2000/svg" xmlns:xlink="http://www.w3.org/1999/xlink" x="0px" y="0px"
	 width="150px" height="120px" viewBox="0 0 150 120" enable-background="new 0 0 150 120" xml:space="preserve">
<title>Apple Watch 42mm</title>
<desc>Created with Sketch.</desc>
<g id="Group" transform="translate(7.000000, 18.000000)">
	<polygon id="Fill-1" fill="#12B5EE" points="68.347,34.385 58.5,43.103 59.63,44.356 67.502,37.151 67.502,55.061 69.189,55.061 
		69.189,37.151 77.059,44.363 78.223,43.132 	"/>
	<polygon id="Fill-1-Copy" fill="#12B5EE" points="67.502,57.055 67.502,62.85 69.189,62.85 69.189,57.055 	"/>
	<polygon id="Fill-1-Copy_1_" fill="#12B5EE" points="67.502,64.844 67.502,68.305 69.189,68.305 69.189,64.844 	"/>
</g>
<g id="Group-3">
	<polyline id="Path-3" fill="none" stroke="#12B5EE" stroke-width="2" points="59,47.317 59,34 78,34 91.5,46.841 91.5,71.573 
		83.484,71.573 	"/>
	<polyline id="Path-2" fill="none" stroke="#12B5EE" stroke-width="2" points="78,34 78,47.351 91.5,47.351 	"/>
	<g id="Rectangle-6">
		<g>
			<rect id="path-1" x="58" y="47" fill="#D8D8D8" width="2" height="26"/>
		</g>
		<rect x="58.5" y="47.5" fill="none" stroke="#12B5EE" width="1" height="25"/>
	</g>
	<rect id="Rectangle-6-Copy" x="58.5" y="71.5" fill="none" stroke="#12B5EE" width="9" height="1"/>
</g>
</svg>
