<?xml version="1.0" encoding="UTF-8" standalone="no"?>
<svg width="150px" height="120px" viewBox="0 0 150 120" version="1.1" xmlns="http://www.w3.org/2000/svg" xmlns:xlink="http://www.w3.org/1999/xlink">
    <!-- Generator: Sketch 44.1 (41455) - http://www.bohemiancoding.com/sketch -->
    <title>Apple Watch 42mm</title>
    <desc>Created with Sketch.</desc>
    <defs></defs>
    <g id="Welcome" stroke="none" stroke-width="1" fill="none" fill-rule="evenodd">
        <g id="Apple-Watch-42mm">
            <g id="logo" transform="translate(32.000000, 20.000000)">
                <path d="M35.7964732,6.4386149 C38.5451874,3.590766 42.4313005,1.85729276 46.6965467,1.85729276 C52.3835415,1.85729276 57.3122704,4.95278069 59.9662013,9.56505771 C62.2725937,8.57450157 64.800147,8.01731375 67.4540779,8.01731375 C77.6906686,8.01731375 86,16.2203568 86,26.3426023 C86,36.4648478 77.6906686,44.6678909 67.4540779,44.6678909 C66.1903012,44.6678909 64.9897134,44.5440714 63.7891256,44.2964323 C61.4827333,48.3515215 57.0279206,51.1065058 51.9728141,51.1065058 C49.8559882,51.1065058 47.8339456,50.6112277 46.0330639,49.775446 C43.6634827,55.1925498 38.1976488,59 31.8155768,59 C25.149155,59 19.4937546,54.883001 17.3137399,49.0944386 C16.3659074,49.2801679 15.3864805,49.4039874 14.3754592,49.4039874 C6.41366642,49.3420776 0,42.9963274 0,35.133788 C0,29.8714586 2.87509184,25.2901364 7.1719324,22.8137461 C6.28728876,20.8326338 5.81337252,18.6348374 5.81337252,16.3132214 C5.81337252,7.30535152 13.2696547,0 22.4952241,0 C27.9294636,0 32.7318148,2.50734523 35.7964732,6.4386149 Z" id="Shape" fill="#757575" fill-rule="nonzero"></path>
                <path d="M12.0221202,30.9416342 C11.9577705,31.0661479 12.0542951,31.0972763 12.0542951,31.1284047 C12.2151694,31.2529183 12.3760437,31.3151751 12.5690929,31.4085603 C13.4699891,31.8754864 14.3065355,32 15.1752568,32 C16.9770492,32 18.1031694,31.0661479 18.1031694,29.6031128 L18.1031694,29.5719844 C18.1031694,28.2023346 16.8483497,27.7042802 15.6578798,27.3307393 L15.4970055,27.2684825 C14.5961093,26.9883268 13.8239126,26.7392996 13.8239126,26.1789883 L13.8239126,26.1478599 C13.8239126,25.6498054 14.2743607,25.307393 14.9822077,25.307393 C15.7544044,25.307393 16.6874754,25.5564202 17.266623,25.8677043 C17.266623,25.8677043 17.4274973,25.9610895 17.491847,25.8054475 C17.5240219,25.7120623 17.8135956,24.9338521 17.8457705,24.8404669 C17.8779454,24.7470817 17.8135956,24.6848249 17.7492459,24.6536965 C17.0735738,24.2490272 16.1405027,24 15.1752568,24 L14.9822077,24 C13.3412896,24 12.1829945,24.9649805 12.1829945,26.3346304 L12.1829945,26.3657588 C12.1829945,27.8287938 13.4378142,28.2957198 14.6282842,28.6070039 L14.8213333,28.6692607 C15.6900546,28.9182879 16.4300765,29.1361868 16.4300765,29.7276265 L16.4300765,29.7587549 C16.4300765,30.2879377 15.9474536,30.692607 15.1752568,30.692607 C14.8856831,30.692607 13.9204372,30.692607 12.8586667,30.0389105 C12.7299672,29.9766537 12.6656175,29.9143969 12.5690929,29.8521401 C12.5047432,29.8210117 12.3760437,29.7587549 12.3438689,29.9455253 L12.0221202,30.9416342 L12.0221202,30.9416342 Z M38.3411585,30.9416342 C38.2768087,31.0661479 38.3733333,31.0972763 38.3733333,31.1284047 C38.5342077,31.2529183 38.695082,31.3151751 38.8881311,31.4085603 C39.7890273,31.8754864 40.6255738,32 41.4942951,32 C43.2960874,32 44.4222077,31.0661479 44.4222077,29.6031128 L44.4222077,29.5719844 C44.4222077,28.2023346 43.167388,27.7042802 41.976918,27.3307393 L41.8160437,27.2684825 C40.9151475,26.9883268 40.1429508,26.7392996 40.1429508,26.1789883 L40.1429508,26.1478599 C40.1429508,25.6498054 40.5933989,25.307393 41.3012459,25.307393 C42.0734426,25.307393 43.0065137,25.5564202 43.5856612,25.8677043 C43.5856612,25.8677043 43.7465355,25.9610895 43.8108852,25.8054475 C43.8430601,25.7120623 44.1326339,24.9338521 44.1648087,24.8404669 C44.1969836,24.7470817 44.1326339,24.6848249 44.0682842,24.6536965 C43.392612,24.2490272 42.459541,24 41.4942951,24 L41.3012459,24 C39.6603279,24 38.5020328,24.9649805 38.5020328,26.3346304 L38.5020328,26.3657588 C38.5020328,27.8287938 39.7568525,28.2957198 40.9473224,28.6070039 L41.1403716,28.6692607 C42.0090929,28.9182879 42.7491148,29.1361868 42.7491148,29.7276265 L42.7491148,29.7587549 C42.7491148,30.2879377 42.2664918,30.692607 41.4942951,30.692607 C41.2047213,30.692607 40.2394754,30.692607 39.1777049,30.0389105 C39.0490055,29.9766537 38.9846557,29.9143969 38.8881311,29.8521401 C38.8559563,29.8210117 38.695082,29.7898833 38.6629071,29.9455253 L38.3411585,30.9416342 L38.3411585,30.9416342 Z M57.774776,26.459144 C57.6139016,25.9922179 57.3886776,25.5564202 57.0991038,25.2140078 C56.7773552,24.8715953 56.3912568,24.5603113 55.9408087,24.3735409 C55.4903607,24.155642 54.943388,24.0622568 54.3320656,24.0622568 C53.7207432,24.0622568 53.1737705,24.155642 52.7233224,24.3735409 C52.2728743,24.5914397 51.886776,24.8715953 51.5650273,25.2140078 C51.2754536,25.5564202 51.0180546,25.9922179 50.8893552,26.459144 C50.7284809,26.92607 50.6641311,27.4552529 50.6641311,28.0155642 C50.6641311,28.5758755 50.7284809,29.1050584 50.8893552,29.5719844 C51.0502295,30.0389105 51.2754536,30.4747082 51.5650273,30.8171206 C51.886776,31.1595331 52.2728743,31.4708171 52.7233224,31.6575875 C53.1737705,31.844358 53.7207432,31.9688716 54.3320656,31.9688716 C54.943388,31.9688716 55.4903607,31.8754864 55.9408087,31.6575875 C56.3912568,31.4708171 56.7773552,31.1595331 57.0991038,30.8171206 C57.3886776,30.4747082 57.6460765,30.0389105 57.774776,29.5719844 C57.9356503,29.1050584 58,28.5758755 58,28.0155642 C58,27.4552529 57.9356503,26.9571984 57.774776,26.459144 L57.774776,26.459144 Z M56.2625574,28.0155642 C56.2625574,28.8560311 56.1016831,29.5097276 55.7799344,29.9766537 C55.4581858,30.4435798 54.9755628,30.6614786 54.3320656,30.6614786 C53.6563934,30.6614786 53.2059454,30.4435798 52.8841967,29.9766537 C52.5624481,29.5097276 52.4015738,28.8560311 52.4015738,28.0155642 C52.4015738,27.1750973 52.5624481,26.5214008 52.8841967,26.0544747 C53.2059454,25.5875486 53.6563934,25.3696498 54.3320656,25.3696498 C55.0077377,25.3696498 55.4903607,25.5875486 55.7799344,26.0544747 C56.1016831,26.5214008 56.2625574,27.1750973 56.2625574,28.0155642 L56.2625574,28.0155642 Z" id="Shape" fill="#FFFFFF" fill-rule="nonzero"></path>
                <path d="M69.241119,30.46875 C69.1776221,30.3125 69.0506282,30.375 69.0506282,30.375 C68.8283888,30.46875 68.6061495,30.53125 68.3521616,30.5625 C68.0981738,30.59375 67.844186,30.625 67.5267012,30.625 C66.7964862,30.625 66.2567621,30.40625 65.8440319,30 C65.4313017,29.59375 65.2090623,28.90625 65.2090623,28 C65.2090623,27.1875 65.3995532,26.5625 65.7805349,26.09375 C66.1297682,25.625 66.7012408,25.375 67.4314558,25.375 C68.0346769,25.375 68.510904,25.4375 68.9871312,25.59375 C68.9871312,25.59375 69.1141251,25.65625 69.1458736,25.5 C69.2728675,25.15625 69.368113,24.90625 69.4951069,24.5 C69.5268553,24.375 69.4316099,24.34375 69.3998614,24.34375 C69.2093706,24.28125 68.7648919,24.15625 68.4156586,24.09375 C68.0981738,24.03125 67.7171921,24.03125 67.3044619,24.03125 C66.6694923,24.03125 66.1297682,24.125 65.653541,24.34375 C65.1773138,24.5625 64.7645836,24.84375 64.4470988,25.1875 C64.129614,25.53125 63.8756262,25.96875 63.7168838,26.4375 C63.5581414,26.90625 63.462896,27.4375 63.462896,28 C63.462896,29.21875 63.7803808,30.1875 64.4470988,30.90625 C65.1138169,31.625 66.0980197,32 67.3679588,32 C68.1299223,32 68.8918858,31.84375 69.4633584,31.625 C69.4633584,31.625 69.5586038,31.5625 69.5268553,31.4375 L69.241119,30.46875 L69.241119,30.46875 Z M76.7972568,26.15625 C76.6702629,25.6875 76.3527782,25.21875 76.1622873,25 C75.8448025,24.65625 75.5273177,24.40625 75.2098329,24.28125 C74.7971027,24.09375 74.3208755,24 73.7811514,24 C73.1461819,24 72.5747092,24.09375 72.1302306,24.3125 C71.6540034,24.53125 71.2730216,24.8125 70.9872853,25.1875 C70.6698006,25.5625 70.4475612,25.96875 70.3205673,26.46875 C70.1618249,26.96875 70.0983279,27.46875 70.0983279,28.03125 C70.0983279,28.59375 70.1618249,29.125 70.3205673,29.59375 C70.4793097,30.0625 70.701549,30.5 71.0507823,30.84375 C71.3682671,31.1875 71.8127458,31.46875 72.3207214,31.65625 C72.8286971,31.84375 73.4319182,31.9375 74.1303847,31.9375 C75.5908147,31.9375 76.3527782,31.625 76.6385145,31.4375 C76.7020114,31.40625 76.7337599,31.34375 76.6702629,31.1875 L76.3527782,30.28125 C76.2892812,30.15625 76.1622873,30.1875 76.1622873,30.1875 C75.813054,30.3125 75.3050784,30.5625 74.0986362,30.5625 C73.3366727,30.5625 72.7334516,30.34375 72.3842184,29.96875 C72.0032366,29.59375 71.8444942,29.0625 71.8127458,28.34375 L76.8290053,28.34375 C76.8290053,28.34375 76.9559992,28.34375 76.9877477,28.21875 C76.9559992,28.25 77.1147416,27.28125 76.7972568,26.15625 L76.7972568,26.15625 Z M71.8127458,27.1875 C71.8762427,26.71875 72.0032366,26.34375 72.225476,26.03125 C72.5429608,25.5625 72.9874395,25.3125 73.6541575,25.3125 C74.3208755,25.3125 74.7336058,25.5625 75.0510905,26.03125 C75.2733299,26.34375 75.3368268,26.75 75.3685753,27.1875 L71.8127458,27.1875 Z M36.6989289,26.15625 C36.571935,25.6875 36.2544502,25.21875 36.0639593,25 C35.7464746,24.65625 35.4289898,24.40625 35.111505,24.28125 C34.6987748,24.09375 34.2225476,24 33.6828235,24 C33.0478539,24 32.4763813,24.09375 32.0319026,24.3125 C31.5556754,24.53125 31.1746937,24.8125 30.8889574,25.1875 C30.5714726,25.5625 30.3492333,25.96875 30.2222393,26.46875 C30.063497,26.96875 30,27.46875 30,28.03125 C30,28.59375 30.063497,29.125 30.2222393,29.59375 C30.3809817,30.0625 30.6032211,30.5 30.9524543,30.84375 C31.2699391,31.1875 31.7144178,31.46875 32.2223935,31.65625 C32.7303691,31.84375 33.3335902,31.9375 34.0320567,31.9375 C35.4924867,31.9375 36.2544502,31.625 36.5401865,31.4375 C36.6036835,31.40625 36.6354319,31.34375 36.571935,31.1875 L36.2544502,30.28125 C36.1909532,30.15625 36.0639593,30.1875 36.0639593,30.1875 C35.7147261,30.3125 35.2067504,30.5625 34.0003083,30.5625 C33.2383448,30.5625 32.6351237,30.34375 32.2858904,29.96875 C31.9049087,29.59375 31.7461663,29.0625 31.7144178,28.34375 L36.7306774,28.34375 C36.7306774,28.34375 36.8576713,28.34375 36.8894198,28.21875 C36.8576713,28.25 37.0164137,27.28125 36.6989289,26.15625 L36.6989289,26.15625 Z M31.7144178,27.1875 C31.7779148,26.71875 31.9049087,26.34375 32.127148,26.03125 C32.4446328,25.5625 32.8891115,25.3125 33.5558296,25.3125 C34.2225476,25.3125 34.6352778,25.5625 34.9527626,26.03125 C35.1432535,26.34375 35.2384989,26.75 35.2702474,27.1875 L31.7144178,27.1875 Z" id="Shape" fill="#FFFFFF"></path>
                <path d="M22.7463415,27 C22.5707317,27 22.3073171,26.96875 22.0146341,26.96875 C21.604878,26.96875 21.2243902,27.03125 20.8731707,27.125 C20.5219512,27.21875 20.2,27.375 19.9073171,27.59375 C19.6146341,27.8125 19.4097561,28.09375 19.2341463,28.40625 C19.0585366,28.71875 19,29.125 19,29.53125 C19,29.96875 19.0585366,30.34375 19.204878,30.65625 C19.3512195,30.96875 19.5560976,31.21875 19.8195122,31.4375 C20.0829268,31.625 20.404878,31.78125 20.7560976,31.875 C21.1073171,31.96875 21.5170732,32 21.9853659,32 C22.4536585,32 22.9219512,31.96875 23.3902439,31.875 C23.8292683,31.78125 24.3853659,31.6875 24.5609756,31.625 C24.7073171,31.59375 24.8829268,31.53125 24.8829268,31.53125 C25,31.5 25,31.375 25,31.375 L25,26.875 C25,25.875 24.7658537,25.15625 24.2682927,24.6875 C23.7707317,24.25 23.0682927,24 22.1609756,24 C21.8097561,24 21.2536585,24.0625 20.9317073,24.125 C20.9317073,24.125 19.9365854,24.34375 19.497561,24.6875 C19.497561,24.6875 19.4097561,24.75 19.4682927,24.875 L19.7902439,25.8125 C19.8195122,25.9375 19.9365854,25.90625 19.9365854,25.90625 C19.9365854,25.90625 19.9658537,25.90625 20.0243902,25.875 C20.902439,25.375 22.0439024,25.375 22.0439024,25.375 C22.5414634,25.375 22.9219512,25.46875 23.1853659,25.6875 C23.4487805,25.90625 23.5658537,26.21875 23.5658537,26.875 L23.5658537,27.09375 C23.097561,27.03125 22.7463415,27 22.7463415,27 L22.7463415,27 Z M20.902439,30.46875 C20.7268293,30.3125 20.697561,30.28125 20.6390244,30.1875 C20.5512195,30.03125 20.4926829,29.8125 20.4926829,29.53125 C20.4926829,29.09375 20.6390244,28.78125 20.902439,28.5625 C20.902439,28.5625 21.3121951,28.1875 22.2487805,28.21875 C22.9219512,28.21875 23.5073171,28.34375 23.5073171,28.34375 L23.5073171,30.59375 C23.5073171,30.59375 22.9219512,30.71875 22.2487805,30.78125 C21.3121951,30.8125 20.902439,30.46875 20.902439,30.46875 L20.902439,30.46875 Z" id="Shape" fill="#FFFFFF" fill-rule="nonzero"></path>
                <path d="M62.9914405,24.4924731 C63.0228466,24.372043 62.9600343,24.3419355 62.9286282,24.311828 C62.8344098,24.2817204 62.4261299,24.1913978 62.1120685,24.1913978 C61.4839456,24.1612903 61.138478,24.2516129 60.8244166,24.4021505 C60.5103552,24.5225806 60.1648876,24.7634409 59.9764507,25.0043011 L59.9764507,24.4322581 C59.9764507,24.3419355 59.9136384,24.2817204 59.81942,24.2817204 L58.5631743,24.2817204 C58.4689558,24.2817204 58.4061435,24.3419355 58.4061435,24.4322581 L58.4061435,31.5075269 C58.4061435,31.5978495 58.4689558,31.6580645 58.5631743,31.6580645 L59.8508261,31.6580645 C59.9450446,31.6580645 60.0078569,31.5978495 60.0078569,31.5075269 L60.0078569,27.9247312 C60.0078569,27.4430108 60.0706691,26.9612903 60.1648876,26.6903226 C60.259106,26.3892473 60.4161367,26.1483871 60.6045736,25.9978495 C60.7930104,25.8172043 60.9814473,25.6967742 61.2012903,25.6365591 C61.4211333,25.5763441 61.6723825,25.5462366 61.8608193,25.5462366 C62.1120685,25.5462366 62.3947238,25.6064516 62.3947238,25.6064516 C62.4889422,25.6064516 62.5517545,25.5462366 62.5831606,25.4860215 C62.7087852,25.2451613 62.9600343,24.6129032 62.9914405,24.4924731 L62.9914405,24.4924731 Z M50.7744507,21.1806452 C50.6174199,21.1204301 50.4603892,21.0903226 50.2719524,21.0602151 C50.0835155,21.0301075 49.8636725,21 49.6124233,21 C48.7016452,21 48.01071,21.2408602 47.5082117,21.7225806 C47.0057134,22.2043011 46.691652,22.9268817 46.5032151,23.8903226 L46.4404028,24.2215054 L45.3097817,24.2215054 C45.3097817,24.2215054 45.1841571,24.2215054 45.152751,24.372043 L44.9643141,25.3655914 C44.9643141,25.455914 44.9957202,25.516129 45.1213448,25.516129 L46.2205598,25.516129 L45.1213448,31.4473118 C45.0271264,31.9290323 44.932908,32.3204301 44.8386895,32.6215054 C44.7444711,32.9225806 44.6188465,33.1333333 44.4932219,33.283871 C44.3675974,33.4344086 44.2419728,33.5548387 44.0535359,33.6150538 C43.8965052,33.6752688 43.6766622,33.7053763 43.4568192,33.7053763 C43.3311946,33.7053763 43.1741639,33.6752688 43.0485393,33.6752688 C42.9229148,33.6451613 42.8601025,33.6150538 42.7658841,33.5849462 C42.7658841,33.5849462 42.6402595,33.5247312 42.5774472,33.6752688 C42.5460411,33.7655914 42.2319796,34.5483871 42.2005735,34.6387097 C42.1691673,34.7290323 42.2005735,34.8193548 42.2633858,34.8193548 C42.4204165,34.8795699 42.5146349,34.9096774 42.7030718,34.9397849 C42.9857271,35 43.2055701,35 43.4254131,35 C43.8965052,35 44.3047851,34.9397849 44.6502527,34.8193548 C44.9957202,34.6989247 45.3097817,34.488172 45.5610308,34.2172043 C45.8436861,33.916129 46.032123,33.5849462 46.1891537,33.1634409 C46.3461844,32.7419355 46.5032151,32.2 46.6288397,31.5677419 L47.7594609,25.516129 L49.3925803,25.516129 C49.3925803,25.516129 49.5182049,25.516129 49.5496111,25.3655914 L49.7380479,24.372043 C49.7380479,24.2817204 49.7066418,24.2215054 49.5810172,24.2215054 L48.01071,24.2215054 C48.01071,24.1913978 48.1049285,23.6494624 48.2619592,23.1376344 C48.3247715,22.9268817 48.4818022,22.7462366 48.6074268,22.6258065 C48.7330513,22.5053763 48.8586759,22.4150538 49.0157066,22.3849462 C49.1727373,22.3247312 49.3611742,22.3247312 49.5496111,22.3247312 C49.7066418,22.3247312 49.8322664,22.3548387 49.9578909,22.3548387 C50.1149216,22.3849462 50.1777339,22.4150538 50.2091401,22.4150538 C50.3661708,22.4752688 50.3975769,22.4150538 50.4289831,22.3548387 L50.8058568,21.3612903 C50.9000752,21.2408602 50.8058568,21.2107527 50.7744507,21.1806452 L50.7744507,21.1806452 Z M28.6331195,31.4774194 C28.6331195,31.5677419 28.5703072,31.627957 28.4760887,31.627957 L27.1570307,31.627957 C27.0628123,31.627957 27,31.5677419 27,31.4774194 L27,21.3311828 C27,21.2408602 27.0628123,21.1806452 27.1570307,21.1806452 L28.4760887,21.1806452 C28.5703072,21.1806452 28.6331195,21.2408602 28.6331195,21.3311828 L28.6331195,31.4774194 L28.6331195,31.4774194 Z" id="Shape" fill="#FFFFFF"></path>
            </g>
        </g>
    </g>
</svg>