<?xml version="1.0" encoding="utf-8"?>
<!-- Generator: Adobe Illustrator 16.0.4, SVG Export Plug-In . SVG Version: 6.00 Build 0)  -->
<!DOCTYPE svg PUBLIC "-//W3C//DTD SVG 1.1//EN" "http://www.w3.org/Graphics/SVG/1.1/DTD/svg11.dtd">
<svg version="1.1" id="Layer_1" xmlns="http://www.w3.org/2000/svg" xmlns:xlink="http://www.w3.org/1999/xlink" x="0px" y="0px"
	 width="150px" height="120px" viewBox="0 0 150 120" enable-background="new 0 0 150 120" xml:space="preserve">
<title>Apple Watch 42mm</title>
<desc>Created with Sketch.</desc>
<g id="Welcome">
	<g id="Apple-Watch-42mm">
		<g id="logo" transform="translate(32.000000, 20.000000)">
			<path id="Shape" fill="#12B5EE" d="M35.796,6.438c2.749-2.848,6.635-4.581,10.901-4.581c5.687,0,10.615,3.095,13.27,7.708
				c2.306-0.99,4.834-1.547,7.487-1.547C77.69,8.018,86,16.22,86,26.343c0,10.122-8.31,18.325-18.546,18.325
				c-1.264,0-2.464-0.124-3.665-0.371c-2.307,4.055-6.762,6.81-11.816,6.81c-2.117,0-4.139-0.495-5.939-1.331
				C43.664,55.192,38.198,59,31.815,59c-6.667,0-12.322-4.117-14.501-9.906c-0.948,0.187-1.927,0.311-2.938,0.311
				C6.414,49.342,0,42.996,0,35.134c0-5.262,2.875-9.844,7.172-12.32c-0.885-1.981-1.358-4.179-1.358-6.5
				C5.813,7.305,13.27,0,22.495,0C27.93,0,32.732,2.507,35.796,6.438z"/>
			<path id="Shape_1_" fill="#FFFFFF" d="M12.022,30.941c-0.064,0.125,0.032,0.156,0.032,0.187c0.161,0.125,0.322,0.187,0.515,0.28
				C13.47,31.875,14.307,32,15.175,32c1.802,0,2.928-0.934,2.928-2.397v-0.031c0-1.37-1.255-1.868-2.445-2.241l-0.161-0.062
				c-0.901-0.28-1.673-0.529-1.673-1.089v-0.031c0-0.498,0.451-0.84,1.159-0.84c0.772,0,1.705,0.249,2.284,0.56
				c0,0,0.161,0.093,0.225-0.062c0.032-0.094,0.322-0.872,0.354-0.965s-0.032-0.156-0.097-0.187C17.074,24.249,16.141,24,15.175,24
				h-0.193c-1.641,0-2.799,0.965-2.799,2.334v0.031c0,1.463,1.255,1.93,2.445,2.241l0.193,0.062
				c0.869,0.249,1.609,0.467,1.609,1.058v0.031c0,0.529-0.483,0.934-1.255,0.934c-0.29,0-1.255,0-2.316-0.653
				c-0.129-0.062-0.193-0.125-0.29-0.187c-0.064-0.031-0.193-0.093-0.226,0.093L12.022,30.941L12.022,30.941z M38.341,30.941
				c-0.064,0.125,0.032,0.156,0.032,0.187c0.161,0.125,0.322,0.187,0.515,0.28C39.789,31.875,40.625,32,41.494,32
				c1.802,0,2.928-0.934,2.928-2.397v-0.031c0-1.37-1.254-1.868-2.445-2.241l-0.161-0.062c-0.901-0.28-1.673-0.529-1.673-1.089
				v-0.031c0-0.498,0.45-0.84,1.158-0.84c0.772,0,1.705,0.249,2.285,0.56c0,0,0.16,0.093,0.225-0.062
				c0.033-0.094,0.322-0.872,0.354-0.965s-0.032-0.156-0.097-0.187C43.393,24.249,42.459,24,41.494,24h-0.193
				c-1.641,0-2.799,0.965-2.799,2.334v0.031c0,1.463,1.255,1.93,2.445,2.241l0.193,0.062c0.869,0.249,1.609,0.467,1.609,1.058v0.031
				c0,0.529-0.482,0.934-1.255,0.934c-0.29,0-1.255,0-2.316-0.653c-0.129-0.062-0.193-0.125-0.29-0.187
				c-0.032-0.031-0.193-0.062-0.225,0.093L38.341,30.941L38.341,30.941z M57.775,26.459c-0.162-0.467-0.387-0.902-0.676-1.245
				c-0.322-0.342-0.709-0.653-1.158-0.84c-0.451-0.218-0.998-0.311-1.609-0.311s-1.158,0.093-1.609,0.311
				c-0.449,0.218-0.836,0.498-1.158,0.84c-0.289,0.343-0.547,0.778-0.676,1.245c-0.16,0.467-0.225,0.996-0.225,1.557
				c0,0.56,0.064,1.089,0.225,1.556c0.162,0.467,0.387,0.903,0.676,1.246c0.322,0.342,0.709,0.653,1.158,0.84
				c0.451,0.187,0.998,0.311,1.609,0.311s1.158-0.093,1.609-0.311c0.449-0.187,0.836-0.498,1.158-0.84
				c0.289-0.343,0.547-0.778,0.676-1.246C57.936,29.105,58,28.576,58,28.016C58,27.455,57.936,26.957,57.775,26.459L57.775,26.459z
				 M56.263,28.016c0,0.84-0.161,1.494-0.483,1.961c-0.321,0.467-0.804,0.685-1.447,0.685c-0.676,0-1.126-0.218-1.447-0.685
				c-0.322-0.467-0.483-1.121-0.483-1.961s0.161-1.494,0.483-1.961c0.321-0.467,0.771-0.685,1.447-0.685s1.158,0.218,1.447,0.685
				C56.102,26.521,56.263,27.175,56.263,28.016L56.263,28.016z"/>
			<path id="Shape_2_" fill="#FFFFFF" d="M69.241,30.469c-0.063-0.156-0.19-0.094-0.19-0.094c-0.223,0.094-0.445,0.156-0.699,0.188
				s-0.508,0.062-0.824,0.062c-0.73,0-1.271-0.219-1.684-0.625c-0.412-0.406-0.635-1.094-0.635-2c0-0.812,0.19-1.438,0.572-1.906
				c0.349-0.469,0.92-0.719,1.65-0.719c0.604,0,1.079,0.062,1.556,0.219c0,0,0.127,0.062,0.159-0.094
				c0.127-0.344,0.222-0.594,0.349-1c0.032-0.125-0.063-0.156-0.095-0.156c-0.191-0.062-0.636-0.188-0.984-0.25
				c-0.318-0.062-0.699-0.062-1.111-0.062c-0.635,0-1.175,0.094-1.651,0.312c-0.476,0.219-0.889,0.5-1.206,0.844
				c-0.318,0.344-0.572,0.781-0.73,1.25s-0.254,1-0.254,1.562c0,1.219,0.317,2.188,0.984,2.906C65.113,31.625,66.098,32,67.368,32
				c0.762,0,1.524-0.156,2.095-0.375c0,0,0.096-0.062,0.064-0.188L69.241,30.469L69.241,30.469z M76.797,26.156
				c-0.127-0.469-0.444-0.938-0.635-1.156c-0.317-0.344-0.635-0.594-0.952-0.719C74.797,24.094,74.32,24,73.781,24
				c-0.635,0-1.207,0.094-1.65,0.312c-0.477,0.219-0.857,0.5-1.144,0.875c-0.317,0.375-0.54,0.781-0.667,1.281
				c-0.158,0.5-0.223,1-0.223,1.562s0.064,1.094,0.223,1.562c0.159,0.469,0.381,0.906,0.73,1.25c0.317,0.344,0.762,0.625,1.27,0.812
				s1.111,0.281,1.811,0.281c1.46,0,2.222-0.312,2.508-0.5c0.063-0.031,0.096-0.094,0.031-0.25l-0.317-0.906
				c-0.063-0.125-0.19-0.094-0.19-0.094c-0.35,0.125-0.857,0.375-2.063,0.375c-0.762,0-1.365-0.219-1.714-0.594
				c-0.381-0.375-0.54-0.906-0.572-1.625h5.017c0,0,0.127,0,0.159-0.125C76.956,28.25,77.115,27.281,76.797,26.156L76.797,26.156z
				 M71.812,27.188c0.064-0.469,0.191-0.844,0.413-1.156c0.317-0.469,0.762-0.719,1.429-0.719c0.666,0,1.079,0.25,1.396,0.719
				c0.223,0.312,0.286,0.719,0.318,1.156H71.812z M36.699,26.156c-0.127-0.469-0.444-0.938-0.635-1.156
				c-0.317-0.344-0.635-0.594-0.953-0.719C34.699,24.094,34.223,24,33.683,24c-0.635,0-1.206,0.094-1.651,0.312
				c-0.476,0.219-0.857,0.5-1.143,0.875c-0.318,0.375-0.54,0.781-0.667,1.281c-0.159,0.5-0.222,1-0.222,1.562
				s0.063,1.094,0.222,1.562s0.381,0.906,0.73,1.25c0.317,0.344,0.762,0.625,1.27,0.812c0.508,0.188,1.111,0.281,1.81,0.281
				c1.46,0,2.222-0.312,2.508-0.5c0.063-0.031,0.095-0.094,0.032-0.25l-0.317-0.906c-0.063-0.125-0.19-0.094-0.19-0.094
				c-0.349,0.125-0.857,0.375-2.063,0.375c-0.762,0-1.365-0.219-1.714-0.594c-0.381-0.375-0.54-0.906-0.572-1.625h5.016
				c0,0,0.127,0,0.159-0.125C36.857,28.25,37.017,27.281,36.699,26.156L36.699,26.156z M31.714,27.188
				c0.063-0.469,0.19-0.844,0.413-1.156c0.318-0.469,0.762-0.719,1.429-0.719c0.667,0,1.08,0.25,1.397,0.719
				c0.19,0.312,0.286,0.719,0.317,1.156H31.714z"/>
			<path id="Shape_3_" fill="#FFFFFF" d="M22.747,27c-0.176,0-0.439-0.031-0.732-0.031c-0.41,0-0.79,0.062-1.142,0.156
				c-0.351,0.094-0.673,0.25-0.966,0.469c-0.292,0.219-0.498,0.5-0.673,0.812C19.059,28.719,19,29.125,19,29.531
				c0,0.438,0.059,0.812,0.205,1.125c0.146,0.312,0.351,0.562,0.614,0.781c0.264,0.188,0.585,0.344,0.937,0.438
				C21.107,31.969,21.517,32,21.985,32s0.937-0.031,1.405-0.125c0.439-0.094,0.995-0.188,1.171-0.25
				c0.146-0.031,0.322-0.094,0.322-0.094C25,31.5,25,31.375,25,31.375v-4.5c0-1-0.234-1.719-0.732-2.188
				C23.771,24.25,23.068,24,22.161,24c-0.352,0-0.908,0.062-1.229,0.125c0,0-0.995,0.219-1.434,0.562c0,0-0.088,0.062-0.029,0.188
				l0.322,0.938c0.029,0.125,0.146,0.094,0.146,0.094s0.029,0,0.088-0.031c0.878-0.5,2.02-0.5,2.02-0.5
				c0.498,0,0.878,0.094,1.142,0.312c0.263,0.219,0.38,0.531,0.38,1.188v0.219C23.098,27.031,22.747,27,22.747,27L22.747,27z
				 M20.902,30.469c-0.175-0.156-0.205-0.188-0.263-0.281c-0.088-0.156-0.146-0.375-0.146-0.656c0-0.438,0.146-0.75,0.41-0.969
				c0,0,0.41-0.375,1.347-0.344c0.673,0,1.258,0.125,1.258,0.125v2.25c0,0-0.585,0.125-1.258,0.188
				C21.312,30.812,20.902,30.469,20.902,30.469L20.902,30.469z"/>
			<path id="Shape_4_" fill="#FFFFFF" d="M62.991,24.493c0.032-0.121-0.031-0.151-0.062-0.181c-0.095-0.03-0.503-0.121-0.816-0.121
				c-0.628-0.03-0.974,0.06-1.288,0.211c-0.314,0.12-0.659,0.361-0.848,0.602v-0.572c0-0.09-0.062-0.15-0.157-0.15h-1.257
				c-0.094,0-0.156,0.06-0.156,0.15v7.075c0,0.09,0.062,0.151,0.156,0.151h1.288c0.095,0,0.157-0.061,0.157-0.151v-3.583
				c0-0.482,0.062-0.963,0.157-1.234c0.095-0.301,0.251-0.542,0.439-0.692c0.188-0.181,0.377-0.301,0.597-0.361
				c0.22-0.061,0.471-0.09,0.66-0.09c0.251,0,0.533,0.06,0.533,0.06c0.094,0,0.157-0.06,0.188-0.121
				C62.709,25.245,62.96,24.613,62.991,24.493L62.991,24.493z M50.774,21.181c-0.157-0.06-0.313-0.09-0.503-0.121
				C50.084,21.03,49.863,21,49.612,21c-0.911,0-1.602,0.241-2.104,0.723c-0.502,0.481-0.816,1.204-1.004,2.167l-0.063,0.332H45.31
				c0,0-0.126,0-0.157,0.15l-0.188,0.994c0,0.09,0.031,0.15,0.156,0.15h1.1l-1.1,5.931c-0.094,0.482-0.188,0.873-0.282,1.174
				s-0.22,0.512-0.346,0.662c-0.126,0.151-0.251,0.271-0.439,0.332c-0.157,0.06-0.377,0.09-0.597,0.09
				c-0.126,0-0.283-0.03-0.409-0.03c-0.125-0.03-0.188-0.06-0.282-0.09c0,0-0.126-0.06-0.188,0.09
				c-0.032,0.09-0.346,0.873-0.377,0.963c-0.032,0.09,0,0.181,0.062,0.181c0.157,0.06,0.251,0.09,0.44,0.121
				C42.986,35,43.206,35,43.425,35c0.471,0,0.879-0.06,1.225-0.181s0.659-0.331,0.91-0.602c0.283-0.301,0.472-0.632,0.629-1.054
				c0.156-0.421,0.314-0.963,0.439-1.596l1.131-6.052h1.633c0,0,0.125,0,0.157-0.15l0.188-0.994c0-0.09-0.031-0.15-0.157-0.15h-1.57
				c0-0.03,0.095-0.572,0.251-1.084c0.062-0.211,0.221-0.392,0.346-0.512c0.125-0.121,0.252-0.211,0.408-0.241
				c0.157-0.06,0.346-0.06,0.534-0.06c0.157,0,0.282,0.03,0.408,0.03c0.157,0.03,0.22,0.06,0.251,0.06
				c0.157,0.06,0.188,0,0.221-0.06l0.376-0.994C50.9,21.241,50.806,21.211,50.774,21.181L50.774,21.181z M28.633,31.478
				c0,0.09-0.063,0.15-0.157,0.15h-1.319c-0.094,0-0.157-0.06-0.157-0.15V21.331c0-0.09,0.063-0.15,0.157-0.15h1.319
				c0.094,0,0.157,0.06,0.157,0.15V31.478L28.633,31.478z"/>
		</g>
	</g>
</g>
</svg>
