<?xml version="1.0" encoding="utf-8"?>
<!-- Generator: Adobe Illustrator 16.0.4, SVG Export Plug-In . SVG Version: 6.00 Build 0)  -->
<!DOCTYPE svg PUBLIC "-//W3C//DTD SVG 1.1//EN" "http://www.w3.org/Graphics/SVG/1.1/DTD/svg11.dtd">
<svg version="1.1" id="Layer_1" xmlns="http://www.w3.org/2000/svg" xmlns:xlink="http://www.w3.org/1999/xlink" x="0px" y="0px"
	 width="40px" height="40px" viewBox="0 0 40 40" enable-background="new 0 0 40 40" xml:space="preserve">
<title>Apple Watch 42mm</title>
<desc>Created with Sketch.</desc>
<g id="Welcome">
	<g id="Apple-Watch-42mm">
		<path id="Path-2" fill="#12B5EE" d="M11.641,17.962c1.133,1.044,1.98,1.839,2.541,2.383s1.298,1.255,2.212,2.132
			c0.706-0.887,1.707-2.016,3.002-3.385c0.965-1.02,3.793-3.729,5.827-5.255c0.771-0.579,1.449-1.077,2.249-1.609
			c0.534-0.354,1.185-0.764,1.954-1.228l0.737,1.071c-2.241,2.182-3.806,3.776-4.693,4.784c-1.332,1.511-3.153,4.053-4.24,5.622
			c-1.087,1.568-1.191,1.846-2.026,3.156c-0.558,0.874-1.1,1.824-1.626,2.852c-1.709-1.641-3.024-2.916-3.943-3.826
			C12.715,23.746,11.17,22.266,9,20.216L11.641,17.962z"/>
	</g>
</g>
</svg>
